<?xml version="1.0" standalone="no"?><!-- Generator: Gravit.io --><svg xmlns="http://www.w3.org/2000/svg" xmlns:xlink="http://www.w3.org/1999/xlink" style="isolation:isolate" viewBox="0 0 1000 700" width="1000" height="700"><defs><clipPath id="_clipPath_I52u3DdF9hIgq9TdB8DNMwadivUwF5sc"><rect width="1000" height="700"/></clipPath></defs><g clip-path="url(#_clipPath_I52u3DdF9hIgq9TdB8DNMwadivUwF5sc)"><g><linearGradient id="_lgradient_0" x1="0.016290726817042633" y1="0.02685284640171859" x2="1.0263157894736845" y2="0.8163265306122448" gradientTransform="matrix(1000,0,0,700,-1,0)" gradientUnits="userSpaceOnUse"><stop offset="1.7391304347826086%" stop-opacity="0.51" style="stop-color:rgb(170,170,56)"/><stop offset="98.69565217391305%" stop-opacity="1" style="stop-color:rgb(33,223,33)"/></linearGradient><rect x="-1" y="0" width="1000" height="700" transform="matrix(1,0,0,1,0,0)" fill="url(#_lgradient_0)"/><linearGradient id="_lgradient_1" x1="0.25426035680801673" y1="0.35400528667243825" x2="1.2772360910720741" y2="0.801209680343723" gradientTransform="matrix(734.819,-505.761,368.251,593.982,390.465,277.889)" gradientUnits="userSpaceOnUse"><stop offset="36.52173913043478%" stop-opacity="0.17" style="stop-color:rgb(255,255,255)"/><stop offset="98.26086956521739%" stop-opacity="0" style="stop-color:rgb(0,255,0)"/></linearGradient><path d=" M 574.59 574.88 C 472.969 410.967 555.096 164.577 757.875 25.009 C 960.653 -114.56 1207.788 -94.794 1309.41 69.12 C 1411.031 233.033 1328.904 479.423 1126.125 618.991 C 923.347 758.56 676.212 738.794 574.59 574.88 Z " fill="url(#_lgradient_1)"/><linearGradient id="_lgradient_2" x1="0.25426035680801673" y1="0.35400528667243825" x2="1.2772360910720741" y2="0.801209680343723" gradientTransform="matrix(759.849,-551.15,380.795,647.289,327.678,282.931)" gradientUnits="userSpaceOnUse"><stop offset="36.52173913043478%" stop-opacity="0.08" style="stop-color:rgb(255,255,255)"/><stop offset="98.26086956521739%" stop-opacity="0" style="stop-color:rgb(0,255,0)"/></linearGradient><path d=" M 518.075 606.575 C 412.992 427.951 497.917 159.45 707.603 7.356 C 917.289 -144.738 1172.842 -123.199 1277.925 55.425 C 1383.008 234.049 1298.083 502.55 1088.397 654.644 C 878.711 806.738 623.158 785.199 518.075 606.575 Z " fill="url(#_lgradient_2)"/><linearGradient id="_lgradient_3" x1="0.25426035680801673" y1="0.35400528667243825" x2="1.2772360910720741" y2="0.801209680343723" gradientTransform="matrix(759.849,-596.539,380.795,700.595,278.678,289.972)" gradientUnits="userSpaceOnUse"><stop offset="36.52173913043478%" stop-opacity="0.04" style="stop-color:rgb(255,255,255)"/><stop offset="98.26086956521739%" stop-opacity="0" style="stop-color:rgb(0,255,0)"/></linearGradient><path d=" M 469.075 640.269 C 363.992 446.935 448.917 156.322 658.603 -8.297 C 868.289 -172.917 1123.842 -149.604 1228.925 43.731 C 1334.008 237.065 1249.083 527.678 1039.397 692.297 C 829.711 856.917 574.158 833.604 469.075 640.269 Z " fill="url(#_lgradient_3)"/><linearGradient id="_lgradient_4" x1="0.25426035680801673" y1="0.35400528667243825" x2="1.2772360910720741" y2="0.801209680343723" gradientTransform="matrix(713.299,-465.95,357.466,547.227,431.581,274.662)" gradientUnits="userSpaceOnUse"><stop offset="36.52173913043478%" stop-opacity="0.57" style="stop-color:rgb(255,255,255)"/><stop offset="98.26086956521739%" stop-opacity="0" style="stop-color:rgb(0,255,0)"/></linearGradient><path d=" M 610.314 548.276 C 511.668 397.264 591.39 170.27 788.23 41.687 C 985.07 -86.895 1224.967 -68.685 1323.613 82.326 C 1422.258 233.337 1342.536 460.332 1145.696 588.914 C 948.856 717.496 708.959 699.287 610.314 548.276 Z " fill="url(#_lgradient_4)"/></g><g><path d=" M 44.28 -16.102 C 47.689 -68.147 81.308 -108.379 119.309 -105.89 C 157.31 -103.402 185.394 -59.127 181.985 -7.083 C 178.576 44.962 144.957 85.194 106.956 82.705 C 68.956 80.216 40.871 35.942 44.28 -16.102 Z " fill="rgb(255,255,255)" fill-opacity="0.22"/></g><g><g><path d=" M 205.182 654.386 L 180.639 675.796 L 156.096 697.207 C 147.435 704.762 132.945 705.291 123.756 698.388 L 95.398 677.082 L 67.04 655.777 C 57.852 648.874 59.722 643.129 71.213 642.955 L 135.633 641.983 L 200.052 641.012 C 211.544 640.838 213.842 646.831 205.182 654.386 Z " fill="rgb(255,255,255)" fill-opacity="0.04"/><path d=" M 230.537 645.198 L 194.711 679.698 L 158.886 714.198 C 150.002 722.752 135.083 723.306 125.59 715.433 L 84.711 681.529 L 43.832 647.626 C 34.34 639.753 36.644 633.194 48.975 632.989 L 136.633 631.529 L 224.29 630.07 C 236.621 629.864 239.421 636.643 230.537 645.198 Z " fill="rgb(255,255,255)" fill-opacity="0.1"/><path d=" M 246.423 642.659 L 206.278 683.609 L 166.134 724.559 C 153.121 737.833 131.22 738.649 117.255 726.381 L 71.278 685.99 L 25.302 645.6 C 11.337 633.332 15.089 623.106 33.674 622.778 L 135 620.99 L 236.326 619.203 C 254.911 618.875 259.436 629.386 246.423 642.659 Z " fill="rgb(255,255,255)" fill-opacity="0.11"/></g><g><g><rect x="90.693" y="661.162" width="22.387" height="22.387" transform="matrix(0.005,1,-1,0.005,773.678,566.813)" fill="none"/></g></g></g></g></svg>